<mxfile host="drawio-plugin" modified="2023-09-06T09:07:38.459Z" agent="5.0 (Windows NT 10.0; Win64; x64) AppleWebKit/537.36 (KHTML, like Gecko) Chrome/111.0.0.0 Safari/537.36" etag="9Pc9OYMIgLdr8WPj5i8X" version="20.5.3" type="embed"><diagram name="Страница — 1" id="nBrP1E0GAgVyJa1ZpKWH"><mxGraphModel dx="979" dy="548" grid="1" gridSize="10" guides="1" tooltips="1" connect="1" arrows="1" fold="1" page="1" pageScale="1" pageWidth="3300" pageHeight="2339" background="none" math="0" shadow="0"><root><mxCell id="0"/><mxCell id="1" parent="0"/><mxCell id="g8gEgHumIA5f0x8cdPXF-1" value="&lt;b&gt;USER&lt;/b&gt;&lt;br&gt;&lt;font style=&quot;font-size: 10px;&quot;&gt;ID&lt;br&gt;phone*&lt;br&gt;firstName&lt;br&gt;registeredAt&lt;br&gt;isDisabled&lt;br&gt;cameFrom&lt;br&gt;&lt;/font&gt;" style="whiteSpace=wrap;html=1;aspect=fixed;fillColor=#dae8fc;strokeColor=#6c8ebf;" parent="1" vertex="1"><mxGeometry x="367.5" y="250" width="120" height="120" as="geometry"/></mxCell><mxCell id="g8gEgHumIA5f0x8cdPXF-9" value="&lt;b&gt;AUTO&lt;/b&gt;&lt;br&gt;orderID*&lt;br&gt;brand&lt;br&gt;model&lt;br&gt;stateNumber&lt;br&gt;middleCost&lt;br&gt;condition" style="whiteSpace=wrap;html=1;aspect=fixed;fillColor=#f5f5f5;fontColor=#333333;strokeColor=#666666;" parent="1" vertex="1"><mxGeometry x="527.5" y="528.75" width="107.5" height="107.5" as="geometry"/></mxCell><mxCell id="g8gEgHumIA5f0x8cdPXF-10" value="&lt;b&gt;ORDER&lt;br&gt;&lt;/b&gt;ID&lt;br&gt;userID*&lt;br&gt;timestamp&lt;br&gt;autoStateNumber&lt;br&gt;startingCost&lt;br&gt;isClosed" style="whiteSpace=wrap;html=1;aspect=fixed;container=1;" parent="1" vertex="1"><mxGeometry x="367.5" y="516.25" width="120" height="120" as="geometry"><mxRectangle x="202.5" y="360" width="130" height="110" as="alternateBounds"/></mxGeometry></mxCell><mxCell id="g8gEgHumIA5f0x8cdPXF-17" value="&lt;b&gt;CALL&lt;br&gt;&lt;/b&gt;orderID*&lt;br&gt;employeeID*&lt;br&gt;phoneNumber&lt;br&gt;timestamp&lt;br&gt;duration&lt;br&gt;dealPlanned" style="whiteSpace=wrap;html=1;aspect=fixed;" parent="1" vertex="1"><mxGeometry x="367.5" y="656.25" width="120" height="120" as="geometry"/></mxCell><mxCell id="g8gEgHumIA5f0x8cdPXF-20" value="&lt;b&gt;DEAL&lt;/b&gt;&lt;br&gt;orderID*&lt;br&gt;salerID*&lt;br&gt;location&lt;br&gt;datetime&lt;br&gt;finalCost&lt;br&gt;status" style="whiteSpace=wrap;html=1;aspect=fixed;" parent="1" vertex="1"><mxGeometry x="367.5" y="796.25" width="120" height="120" as="geometry"/></mxCell><mxCell id="g8gEgHumIA5f0x8cdPXF-29" value="&lt;b&gt;PAYMENT&lt;br&gt;&lt;/b&gt;orderID*&lt;br&gt;amount&lt;br&gt;timestamp&lt;br&gt;method" style="whiteSpace=wrap;html=1;aspect=fixed;fillColor=#f5f5f5;fontColor=#333333;strokeColor=#666666;" parent="1" vertex="1"><mxGeometry x="245" y="815" width="82.5" height="82.5" as="geometry"/></mxCell><mxCell id="g8gEgHumIA5f0x8cdPXF-31" value="BUSINESS LOGIC" style="rounded=1;whiteSpace=wrap;html=1;fillColor=#647687;strokeColor=#314354;fontColor=#ffffff;fontStyle=1" parent="1" vertex="1"><mxGeometry x="327.5" y="160" width="200" height="60" as="geometry"/></mxCell><mxCell id="g8gEgHumIA5f0x8cdPXF-35" value="" style="endArrow=classic;html=1;rounded=0;" parent="1" edge="1"><mxGeometry width="50" height="50" relative="1" as="geometry"><mxPoint x="205" y="170" as="sourcePoint"/><mxPoint x="205" y="890" as="targetPoint"/></mxGeometry></mxCell><mxCell id="g8gEgHumIA5f0x8cdPXF-49" value="&lt;b&gt;REGISTRATION&lt;/b&gt;&lt;br&gt;&lt;b&gt;CODE&lt;/b&gt;&lt;br&gt;userID*&lt;br&gt;sendedFrom&lt;br&gt;timestamp&lt;br&gt;isConfirmed&lt;br&gt;confirmedAt" style="whiteSpace=wrap;html=1;aspect=fixed;fillColor=#dae8fc;strokeColor=#6c8ebf;" parent="1" vertex="1"><mxGeometry x="812.5" y="250" width="105" height="105" as="geometry"/></mxCell><mxCell id="g8gEgHumIA5f0x8cdPXF-50" value="&lt;b&gt;REFRESH&lt;/b&gt;&lt;br&gt;&lt;b&gt;TOKEN&lt;/b&gt;&lt;br&gt;userID*&lt;br&gt;token&lt;br&gt;createdAt&lt;br&gt;expiresAt" style="whiteSpace=wrap;html=1;aspect=fixed;" parent="1" vertex="1"><mxGeometry x="820" y="370" width="90" height="90" as="geometry"/></mxCell><mxCell id="g8gEgHumIA5f0x8cdPXF-51" value="AUTHENTICATION" style="rounded=1;whiteSpace=wrap;html=1;fillColor=#647687;strokeColor=#314354;fontColor=#ffffff;fontStyle=1" parent="1" vertex="1"><mxGeometry x="765" y="160" width="200" height="60" as="geometry"/></mxCell><mxCell id="g8gEgHumIA5f0x8cdPXF-53" value="&lt;b&gt;CALL&lt;/b&gt;&lt;br&gt;&lt;b&gt;REQUEST&lt;br&gt;&lt;/b&gt;userID*&lt;br&gt;employeeID*&lt;br&gt;timestamp&lt;br&gt;calledAt" style="whiteSpace=wrap;html=1;aspect=fixed;fillColor=#f5f5f5;fontColor=#333333;strokeColor=#666666;" parent="1" vertex="1"><mxGeometry x="235" y="528.75" width="92.5" height="92.5" as="geometry"/></mxCell><mxCell id="2" value="MCSERVICES" style="rounded=1;whiteSpace=wrap;html=1;fillColor=#647687;strokeColor=#314354;fontColor=#ffffff;fontStyle=1" parent="1" vertex="1"><mxGeometry x="1410" y="160" width="200" height="60" as="geometry"/></mxCell><mxCell id="4" value="BUSINESS LOGIC" style="rounded=0;whiteSpace=wrap;html=1;" parent="1" vertex="1"><mxGeometry x="1375" y="547" width="120" height="60" as="geometry"/></mxCell><mxCell id="5" value="PARSING" style="rounded=0;whiteSpace=wrap;html=1;" parent="1" vertex="1"><mxGeometry x="1375" y="647" width="120" height="60" as="geometry"/></mxCell><mxCell id="6" value="TGBOT" style="rounded=0;whiteSpace=wrap;html=1;" parent="1" vertex="1"><mxGeometry x="1535" y="546" width="120" height="60" as="geometry"/></mxCell><mxCell id="7" value="API GATEWAY" style="rounded=0;whiteSpace=wrap;html=1;fontStyle=1" parent="1" vertex="1"><mxGeometry x="1455" y="375" width="120" height="60" as="geometry"/></mxCell><mxCell id="17" value="" style="endArrow=classic;startArrow=classic;html=1;rounded=0;entryX=0.5;entryY=0;entryDx=0;entryDy=0;exitX=1.008;exitY=0.426;exitDx=0;exitDy=0;exitPerimeter=0;" parent="1" source="7" target="6" edge="1"><mxGeometry width="50" height="50" relative="1" as="geometry"><mxPoint x="1515" y="476" as="sourcePoint"/><mxPoint x="1565" y="536" as="targetPoint"/><Array as="points"><mxPoint x="1595" y="400"/></Array></mxGeometry></mxCell><mxCell id="18" value="" style="endArrow=classic;startArrow=classic;html=1;rounded=0;exitX=0.5;exitY=0;exitDx=0;exitDy=0;entryX=0;entryY=0.5;entryDx=0;entryDy=0;" parent="1" source="4" target="7" edge="1"><mxGeometry width="50" height="50" relative="1" as="geometry"><mxPoint x="1455" y="556" as="sourcePoint"/><mxPoint x="1515" y="476" as="targetPoint"/><Array as="points"><mxPoint x="1435" y="406"/></Array></mxGeometry></mxCell><mxCell id="19" value="" style="endArrow=classic;startArrow=classic;html=1;rounded=0;entryX=0.5;entryY=1;entryDx=0;entryDy=0;exitX=0.5;exitY=0;exitDx=0;exitDy=0;" parent="1" source="5" target="4" edge="1"><mxGeometry width="50" height="50" relative="1" as="geometry"><mxPoint x="1425" y="677" as="sourcePoint"/><mxPoint x="1475" y="627" as="targetPoint"/></mxGeometry></mxCell><mxCell id="20" value="" style="endArrow=classic;startArrow=classic;html=1;rounded=0;exitX=1;exitY=0.5;exitDx=0;exitDy=0;" parent="1" source="4" edge="1"><mxGeometry width="50" height="50" relative="1" as="geometry"><mxPoint x="1525" y="627" as="sourcePoint"/><mxPoint x="1535" y="577" as="targetPoint"/></mxGeometry></mxCell><mxCell id="oQNfvQY3aFG_e4Oa21x_-20" value="AUTH" style="rounded=0;whiteSpace=wrap;html=1;" parent="1" vertex="1"><mxGeometry x="1455" y="466" width="120" height="60" as="geometry"/></mxCell><mxCell id="oQNfvQY3aFG_e4Oa21x_-21" value="" style="endArrow=classic;startArrow=classic;html=1;rounded=0;entryX=0.5;entryY=1;entryDx=0;entryDy=0;exitX=0.5;exitY=0;exitDx=0;exitDy=0;" parent="1" source="oQNfvQY3aFG_e4Oa21x_-20" target="7" edge="1"><mxGeometry width="50" height="50" relative="1" as="geometry"><mxPoint x="1345" y="526" as="sourcePoint"/><mxPoint x="1395" y="476" as="targetPoint"/></mxGeometry></mxCell><mxCell id="oQNfvQY3aFG_e4Oa21x_-23" value="" style="endArrow=classic;startArrow=classic;html=1;rounded=0;" parent="1" edge="1"><mxGeometry width="50" height="50" relative="1" as="geometry"><mxPoint x="1695" y="730" as="sourcePoint"/><mxPoint x="1695" y="340" as="targetPoint"/></mxGeometry></mxCell><mxCell id="oQNfvQY3aFG_e4Oa21x_-24" value="&lt;strike&gt;RABBITMQ&lt;/strike&gt;&lt;br&gt;HTTP" style="rounded=1;whiteSpace=wrap;html=1;rotation=-90;fontStyle=1" parent="1" vertex="1"><mxGeometry x="1685" y="505" width="120" height="60" as="geometry"/></mxCell><mxCell id="oQNfvQY3aFG_e4Oa21x_-30" value="NOTIFICATION" style="rounded=0;whiteSpace=wrap;html=1;" parent="1" vertex="1"><mxGeometry x="1215" y="547" width="120" height="60" as="geometry"/></mxCell><mxCell id="oQNfvQY3aFG_e4Oa21x_-31" value="" style="endArrow=classic;startArrow=classic;html=1;rounded=0;entryX=0;entryY=0.5;entryDx=0;entryDy=0;exitX=1;exitY=0.5;exitDx=0;exitDy=0;" parent="1" source="oQNfvQY3aFG_e4Oa21x_-30" target="4" edge="1"><mxGeometry width="50" height="50" relative="1" as="geometry"><mxPoint x="1345" y="556" as="sourcePoint"/><mxPoint x="1435" y="556" as="targetPoint"/></mxGeometry></mxCell><mxCell id="oQNfvQY3aFG_e4Oa21x_-32" value="" style="endArrow=classic;startArrow=classic;html=1;rounded=0;entryX=0.5;entryY=1;entryDx=0;entryDy=0;exitX=0.5;exitY=1;exitDx=0;exitDy=0;" parent="1" source="oQNfvQY3aFG_e4Oa21x_-30" target="6" edge="1"><mxGeometry width="50" height="50" relative="1" as="geometry"><mxPoint x="1255" y="785" as="sourcePoint"/><mxPoint x="1465" y="735" as="targetPoint"/><Array as="points"><mxPoint x="1275" y="736"/><mxPoint x="1435" y="736"/><mxPoint x="1595" y="736"/></Array></mxGeometry></mxCell><mxCell id="oQNfvQY3aFG_e4Oa21x_-36" value="&lt;b&gt;NOTIFICATION&lt;/b&gt;&lt;br&gt;ID&lt;br&gt;userID*&lt;br&gt;orderID&lt;br&gt;method&lt;br&gt;timestamp&lt;br&gt;event&lt;br&gt;content" style="whiteSpace=wrap;html=1;aspect=fixed;fillColor=#f5f5f5;fontColor=#333333;strokeColor=#666666;direction=south;" parent="1" vertex="1"><mxGeometry x="517.19" y="727.25" width="115.62" height="115.62" as="geometry"/></mxCell><mxCell id="oQNfvQY3aFG_e4Oa21x_-37" value="&lt;b&gt;SMS&lt;br&gt;NOTIFICATION&lt;br&gt;&lt;/b&gt;notificationID*&lt;br&gt;sendedFrom&lt;br&gt;sendedTo" style="whiteSpace=wrap;html=1;aspect=fixed;fillColor=#f5f5f5;fontColor=#333333;strokeColor=#666666;" parent="1" vertex="1"><mxGeometry x="650" y="692.56" width="82.5" height="82.5" as="geometry"/></mxCell><mxCell id="oQNfvQY3aFG_e4Oa21x_-39" value="&lt;b&gt;TELEGRAM&lt;br&gt;NOTIFICATION&lt;/b&gt;&lt;br&gt;notificationID*&lt;br&gt;sendedTo" style="whiteSpace=wrap;html=1;aspect=fixed;fillColor=#f5f5f5;fontColor=#333333;strokeColor=#666666;" parent="1" vertex="1"><mxGeometry x="650" y="795.06" width="82.5" height="82.5" as="geometry"/></mxCell><mxCell id="oQNfvQY3aFG_e4Oa21x_-40" value="DATABASE" style="rounded=1;whiteSpace=wrap;html=1;fontSize=20;fillColor=#647687;fontColor=#ffffff;strokeColor=#314354;fontStyle=1" parent="1" vertex="1"><mxGeometry x="390" y="40" width="460" height="60" as="geometry"/></mxCell><mxCell id="oQNfvQY3aFG_e4Oa21x_-44" value="CORE" style="rounded=1;whiteSpace=wrap;html=1;fontSize=20;fillColor=#647687;fontColor=#ffffff;strokeColor=#314354;fontStyle=1" parent="1" vertex="1"><mxGeometry x="1280" y="40" width="460" height="60" as="geometry"/></mxCell><mxCell id="oQNfvQY3aFG_e4Oa21x_-45" value="BUSINESS LOGIC" style="rounded=1;whiteSpace=wrap;html=1;fontSize=20;fillColor=#647687;fontColor=#ffffff;strokeColor=#314354;fontStyle=1" parent="1" vertex="1"><mxGeometry x="2080" y="40" width="460" height="60" as="geometry"/></mxCell><mxCell id="oQNfvQY3aFG_e4Oa21x_-53" style="edgeStyle=orthogonalEdgeStyle;rounded=0;orthogonalLoop=1;jettySize=auto;html=1;entryX=0.5;entryY=0;entryDx=0;entryDy=0;" parent="1" source="oQNfvQY3aFG_e4Oa21x_-47" target="oQNfvQY3aFG_e4Oa21x_-49" edge="1"><mxGeometry relative="1" as="geometry"/></mxCell><mxCell id="oQNfvQY3aFG_e4Oa21x_-58" style="edgeStyle=orthogonalEdgeStyle;rounded=0;orthogonalLoop=1;jettySize=auto;html=1;" parent="1" source="oQNfvQY3aFG_e4Oa21x_-47" target="oQNfvQY3aFG_e4Oa21x_-57" edge="1"><mxGeometry relative="1" as="geometry"/></mxCell><mxCell id="oQNfvQY3aFG_e4Oa21x_-47" value="USER AUTHENTICATION" style="rounded=0;whiteSpace=wrap;html=1;fillColor=#dae8fc;strokeColor=#6c8ebf;fontStyle=1" parent="1" vertex="1"><mxGeometry x="2250" y="130" width="120" height="60" as="geometry"/></mxCell><mxCell id="oQNfvQY3aFG_e4Oa21x_-63" style="edgeStyle=orthogonalEdgeStyle;rounded=0;orthogonalLoop=1;jettySize=auto;html=1;entryX=0.5;entryY=0;entryDx=0;entryDy=0;" parent="1" source="oQNfvQY3aFG_e4Oa21x_-49" target="oQNfvQY3aFG_e4Oa21x_-62" edge="1"><mxGeometry relative="1" as="geometry"/></mxCell><mxCell id="oQNfvQY3aFG_e4Oa21x_-73" style="edgeStyle=orthogonalEdgeStyle;rounded=0;orthogonalLoop=1;jettySize=auto;html=1;" parent="1" source="oQNfvQY3aFG_e4Oa21x_-49" target="oQNfvQY3aFG_e4Oa21x_-66" edge="1"><mxGeometry relative="1" as="geometry"/></mxCell><mxCell id="oQNfvQY3aFG_e4Oa21x_-113" style="edgeStyle=orthogonalEdgeStyle;rounded=0;orthogonalLoop=1;jettySize=auto;html=1;entryX=0.261;entryY=0.04;entryDx=0;entryDy=0;entryPerimeter=0;" parent="1" source="oQNfvQY3aFG_e4Oa21x_-49" target="oQNfvQY3aFG_e4Oa21x_-91" edge="1"><mxGeometry relative="1" as="geometry"/></mxCell><mxCell id="oQNfvQY3aFG_e4Oa21x_-49" value="ORDER" style="rounded=0;whiteSpace=wrap;html=1;fillColor=#6d8764;fontColor=#ffffff;strokeColor=#3A5431;fontStyle=1" parent="1" vertex="1"><mxGeometry x="2150" y="290" width="120" height="60" as="geometry"/></mxCell><mxCell id="oQNfvQY3aFG_e4Oa21x_-75" style="edgeStyle=orthogonalEdgeStyle;rounded=0;orthogonalLoop=1;jettySize=auto;html=1;entryX=1;entryY=0.5;entryDx=0;entryDy=0;" parent="1" source="oQNfvQY3aFG_e4Oa21x_-57" target="oQNfvQY3aFG_e4Oa21x_-66" edge="1"><mxGeometry relative="1" as="geometry"/></mxCell><mxCell id="oQNfvQY3aFG_e4Oa21x_-57" value="CALL REQUEST" style="rounded=0;whiteSpace=wrap;html=1;fillColor=#6d8764;fontColor=#ffffff;strokeColor=#3A5431;fontStyle=1" parent="1" vertex="1"><mxGeometry x="2350" y="290" width="120" height="60" as="geometry"/></mxCell><mxCell id="oQNfvQY3aFG_e4Oa21x_-74" style="edgeStyle=orthogonalEdgeStyle;rounded=0;orthogonalLoop=1;jettySize=auto;html=1;entryX=0.5;entryY=1;entryDx=0;entryDy=0;" parent="1" source="oQNfvQY3aFG_e4Oa21x_-62" target="oQNfvQY3aFG_e4Oa21x_-49" edge="1"><mxGeometry relative="1" as="geometry"/></mxCell><mxCell id="oQNfvQY3aFG_e4Oa21x_-77" style="edgeStyle=orthogonalEdgeStyle;rounded=0;orthogonalLoop=1;jettySize=auto;html=1;" parent="1" source="oQNfvQY3aFG_e4Oa21x_-62" target="oQNfvQY3aFG_e4Oa21x_-76" edge="1"><mxGeometry relative="1" as="geometry"/></mxCell><mxCell id="oQNfvQY3aFG_e4Oa21x_-62" value="PARSING" style="rounded=0;whiteSpace=wrap;html=1;fillColor=#6d8764;fontColor=#ffffff;strokeColor=#3A5431;fontStyle=1" parent="1" vertex="1"><mxGeometry x="2060" y="395" width="120" height="60" as="geometry"/></mxCell><mxCell id="oQNfvQY3aFG_e4Oa21x_-78" style="edgeStyle=orthogonalEdgeStyle;rounded=0;orthogonalLoop=1;jettySize=auto;html=1;entryX=0.495;entryY=-0.025;entryDx=0;entryDy=0;entryPerimeter=0;" parent="1" source="oQNfvQY3aFG_e4Oa21x_-66" target="oQNfvQY3aFG_e4Oa21x_-76" edge="1"><mxGeometry relative="1" as="geometry"/></mxCell><mxCell id="oQNfvQY3aFG_e4Oa21x_-66" value="CALL" style="rounded=0;whiteSpace=wrap;html=1;fillColor=#6d8764;fontColor=#ffffff;strokeColor=#3A5431;fontStyle=1" parent="1" vertex="1"><mxGeometry x="2250" y="395" width="120" height="60" as="geometry"/></mxCell><mxCell id="oQNfvQY3aFG_e4Oa21x_-88" style="edgeStyle=orthogonalEdgeStyle;rounded=0;orthogonalLoop=1;jettySize=auto;html=1;entryX=0.51;entryY=0.017;entryDx=0;entryDy=0;entryPerimeter=0;" parent="1" source="oQNfvQY3aFG_e4Oa21x_-76" target="oQNfvQY3aFG_e4Oa21x_-85" edge="1"><mxGeometry relative="1" as="geometry"/></mxCell><mxCell id="oQNfvQY3aFG_e4Oa21x_-89" style="edgeStyle=orthogonalEdgeStyle;rounded=0;orthogonalLoop=1;jettySize=auto;html=1;entryX=0.5;entryY=-0.043;entryDx=0;entryDy=0;entryPerimeter=0;" parent="1" source="oQNfvQY3aFG_e4Oa21x_-76" target="oQNfvQY3aFG_e4Oa21x_-84" edge="1"><mxGeometry relative="1" as="geometry"/></mxCell><mxCell id="oQNfvQY3aFG_e4Oa21x_-76" value="DEAL" style="rounded=0;whiteSpace=wrap;html=1;fillColor=#6d8764;fontColor=#ffffff;strokeColor=#3A5431;fontStyle=1" parent="1" vertex="1"><mxGeometry x="2150" y="518.75" width="120" height="60" as="geometry"/></mxCell><mxCell id="oQNfvQY3aFG_e4Oa21x_-84" value="PAYMENT" style="rounded=0;whiteSpace=wrap;html=1;fillColor=#6d8764;fontColor=#ffffff;strokeColor=#3A5431;fontStyle=1" parent="1" vertex="1"><mxGeometry x="2080" y="620" width="120" height="60" as="geometry"/></mxCell><mxCell id="oQNfvQY3aFG_e4Oa21x_-85" value="NOTIFICATION" style="rounded=0;whiteSpace=wrap;html=1;fillColor=#6d8764;fontColor=#ffffff;strokeColor=#3A5431;fontStyle=1" parent="1" vertex="1"><mxGeometry x="2220" y="620" width="120" height="60" as="geometry"/></mxCell><mxCell id="oQNfvQY3aFG_e4Oa21x_-91" value="TGBOT" style="rounded=0;whiteSpace=wrap;html=1;fillColor=#6d8764;fontColor=#ffffff;strokeColor=#3A5431;fontStyle=1" parent="1" vertex="1"><mxGeometry x="1910" y="720" width="150" height="80" as="geometry"/></mxCell><mxCell id="oQNfvQY3aFG_e4Oa21x_-108" value="" style="endArrow=classic;html=1;rounded=0;exitX=0.5;exitY=1;exitDx=0;exitDy=0;entryX=1.01;entryY=0.487;entryDx=0;entryDy=0;entryPerimeter=0;" parent="1" source="oQNfvQY3aFG_e4Oa21x_-85" target="oQNfvQY3aFG_e4Oa21x_-91" edge="1"><mxGeometry width="50" height="50" relative="1" as="geometry"><mxPoint x="2240" y="770" as="sourcePoint"/><mxPoint x="2290" y="720" as="targetPoint"/><Array as="points"><mxPoint x="2280" y="760"/></Array></mxGeometry></mxCell><mxCell id="oQNfvQY3aFG_e4Oa21x_-109" value="" style="endArrow=classic;startArrow=classic;html=1;rounded=0;entryX=0.333;entryY=1;entryDx=0;entryDy=0;entryPerimeter=0;exitX=1;exitY=0.25;exitDx=0;exitDy=0;" parent="1" source="oQNfvQY3aFG_e4Oa21x_-91" target="oQNfvQY3aFG_e4Oa21x_-84" edge="1"><mxGeometry width="50" height="50" relative="1" as="geometry"><mxPoint x="2120" y="750" as="sourcePoint"/><mxPoint x="2170" y="700" as="targetPoint"/><Array as="points"><mxPoint x="2120" y="740"/></Array></mxGeometry></mxCell><mxCell id="oQNfvQY3aFG_e4Oa21x_-110" value="" style="endArrow=classic;startArrow=classic;html=1;rounded=0;entryX=0;entryY=0.5;entryDx=0;entryDy=0;exitX=0.5;exitY=0;exitDx=0;exitDy=0;" parent="1" source="oQNfvQY3aFG_e4Oa21x_-91" target="oQNfvQY3aFG_e4Oa21x_-76" edge="1"><mxGeometry width="50" height="50" relative="1" as="geometry"><mxPoint x="1980" y="630" as="sourcePoint"/><mxPoint x="2030" y="580" as="targetPoint"/><Array as="points"><mxPoint x="1985" y="550"/></Array></mxGeometry></mxCell><mxCell id="oQNfvQY3aFG_e4Oa21x_-114" value="ADMIN&lt;br&gt;PANEL" style="rounded=0;whiteSpace=wrap;html=1;" parent="1" vertex="1"><mxGeometry x="1230" y="465" width="90" height="40" as="geometry"/></mxCell><mxCell id="oQNfvQY3aFG_e4Oa21x_-116" value="" style="endArrow=classic;startArrow=classic;html=1;rounded=0;exitX=1;exitY=0.5;exitDx=0;exitDy=0;entryX=0.25;entryY=0;entryDx=0;entryDy=0;" parent="1" source="oQNfvQY3aFG_e4Oa21x_-114" target="4" edge="1"><mxGeometry width="50" height="50" relative="1" as="geometry"><mxPoint x="1355" y="535" as="sourcePoint"/><mxPoint x="1405" y="485" as="targetPoint"/><Array as="points"><mxPoint x="1405" y="485"/></Array></mxGeometry></mxCell><mxCell id="oQNfvQY3aFG_e4Oa21x_-178" value="CLIENT" style="rounded=0;whiteSpace=wrap;html=1;fontStyle=1;fillColor=#dae8fc;strokeColor=#6c8ebf;" parent="1" vertex="1"><mxGeometry x="1455" y="272.5" width="120" height="60" as="geometry"/></mxCell><mxCell id="oQNfvQY3aFG_e4Oa21x_-180" value="" style="endArrow=classic;startArrow=classic;html=1;rounded=0;exitX=0.5;exitY=1;exitDx=0;exitDy=0;entryX=0.5;entryY=0;entryDx=0;entryDy=0;" parent="1" source="oQNfvQY3aFG_e4Oa21x_-178" target="7" edge="1"><mxGeometry width="50" height="50" relative="1" as="geometry"><mxPoint x="1540" y="460" as="sourcePoint"/><mxPoint x="1590" y="410" as="targetPoint"/></mxGeometry></mxCell><mxCell id="oQNfvQY3aFG_e4Oa21x_-181" value="&lt;b&gt;EMPLOYEE&lt;/b&gt;&lt;br&gt;ID&lt;br&gt;userID*&lt;br&gt;lastName&lt;br&gt;role&lt;br&gt;telegramChatID" style="whiteSpace=wrap;html=1;aspect=fixed;fillColor=#f5f5f5;fontColor=#333333;strokeColor=#666666;" parent="1" vertex="1"><mxGeometry x="381.25" y="400.63" width="92.5" height="92.5" as="geometry"/></mxCell></root></mxGraphModel></diagram></mxfile>